<?xml version="1.0" standalone="no"?><!DOCTYPE svg PUBLIC "-//W3C//DTD SVG 1.1//EN" "http://www.w3.org/Graphics/SVG/1.1/DTD/svg11.dtd"><svg t="1595163950161" class="icon" viewBox="0 0 1024 1024" version="1.1" xmlns="http://www.w3.org/2000/svg" p-id="2823" xmlns:xlink="http://www.w3.org/1999/xlink" width="200" height="200"><defs><style type="text/css"></style></defs><path d="M807.822222 287.288889H768c-2.844444 0-8.533333-2.844444-8.533333-8.533333s2.844444-8.533333 8.533333-8.533334h39.822222c2.844444 0 8.533333 2.844444 8.533334 8.533334s-2.844444 8.533333-8.533334 8.533333z" fill="#F7B52C" p-id="2824"></path><path d="M790.755556 307.2c-2.844444 0-8.533333-2.844444-8.533334-8.533333V261.688889c0-2.844444 2.844444-8.533333 8.533334-8.533333s5.688889 2.844444 5.688888 8.533333v39.822222c0 2.844444-2.844444 5.688889-5.688888 5.688889z" fill="#F7B52C" p-id="2825"></path><path d="M315.733333 261.688889c-14.222222 0-25.6-11.377778-25.6-25.6s11.377778-25.6 25.6-25.6 25.6 11.377778 25.6 25.6-11.377778 25.6-25.6 25.6z m0-36.977778c-5.688889 0-11.377778 5.688889-11.377777 11.377778s5.688889 11.377778 11.377777 11.377778 11.377778-5.688889 11.377778-11.377778-5.688889-11.377778-11.377778-11.377778z" fill="#2CA6E0" p-id="2826"></path><path d="M844.8 785.066667c-14.222222 0-25.6-11.377778-25.6-25.6s11.377778-25.6 25.6-25.6 25.6 11.377778 25.6 25.6-11.377778 25.6-25.6 25.6z m0-36.977778c-5.688889 0-11.377778 5.688889-11.377778 11.377778s5.688889 11.377778 11.377778 11.377777 11.377778-5.688889 11.377778-11.377777-5.688889-11.377778-11.377778-11.377778z" fill="#1EAA39" p-id="2827"></path><path d="M671.288889 224.711111m-11.377778 0a11.377778 11.377778 0 1 0 22.755556 0 11.377778 11.377778 0 1 0-22.755556 0Z" fill="#0DAC67" p-id="2828"></path><path d="M790.755556 685.511111m-11.377778 0a11.377778 11.377778 0 1 0 22.755555 0 11.377778 11.377778 0 1 0-22.755555 0Z" fill="#FAED00" p-id="2829"></path><path d="M199.111111 398.222222H159.288889c-2.844444 0-8.533333-2.844444-8.533333-8.533333s2.844444-8.533333 8.533333-8.533333H199.111111c2.844444 0 8.533333 2.844444 8.533333 8.533333s-2.844444 8.533333-8.533333 8.533333z" fill="#E95513" p-id="2830"></path><path d="M179.2 418.133333c-2.844444 0-8.533333-2.844444-8.533333-8.533333V369.777778c0-2.844444 2.844444-8.533333 8.533333-8.533334s8.533333 2.844444 8.533333 8.533334v39.822222c0 5.688889-2.844444 8.533333-8.533333 8.533333z" fill="#E95513" p-id="2831"></path><path d="M230.4 691.2m-11.377778 0a11.377778 11.377778 0 1 0 22.755556 0 11.377778 11.377778 0 1 0-22.755556 0Z" fill="#2CA6E0" p-id="2832"></path><path d="M509.155556 304.355556c25.6 5.688889 51.2 17.066667 71.111111 31.288888l31.288889-17.066666c-17.066667-8.533333-36.977778-17.066667-56.888889-19.911111L543.288889 256h-71.111111l-2.844445 8.533333h25.6l14.222223 39.822223zM509.155556 733.866667l-8.533334 31.288889h45.511111l11.377778-39.822223c14.222222-2.844444 28.444444-8.533333 39.822222-14.222222l-14.222222-8.533333c-25.6 14.222222-48.355556 25.6-73.955555 31.288889z" fill="#0695FF" p-id="2833"></path><path d="M332.8 307.2h42.666667v28.444444h-42.666667z" fill="#2CA6E0" p-id="2834"></path><path d="M344.177778 702.577778h14.222222v8.533333h-14.222222z" fill="#2CA6E0" p-id="2835"></path><path d="M722.488889 463.644444c-5.688889-25.6-17.066667-51.2-31.288889-71.111111l19.911111-34.133333-51.2-51.2-34.133333 19.911111h-2.844445l39.822223 39.822222-19.911112 34.133334c14.222222 22.755556 25.6 45.511111 31.288889 71.111111l39.822223 11.377778v71.111111l-39.822223 11.377777c-5.688889 25.6-17.066667 51.2-31.288889 71.111112l19.911112 34.133333-28.444445 28.444444 25.6 14.222223 51.2-51.2-19.911111-34.133334c14.222222-22.755556 25.6-45.511111 31.288889-71.111111l39.822222-11.377778v-71.111111l-39.822222-11.377778z" fill="#0695FF" p-id="2836"></path><path d="M611.555556 315.733333h14.222222v11.377778h-14.222222z" fill="#2CA6E0" p-id="2837"></path><path d="M637.155556 696.888889l-25.6 25.6h-17.066667v-28.444445h42.666667z" fill="#2CA6E0" p-id="2838"></path><path d="M611.555556 722.488889l25.6-25.6v25.6z" fill="#2CA6E0" p-id="2839"></path><path d="M645.688889 637.155556c14.222222-22.755556 25.6-45.511111 31.288889-71.111112l39.822222-11.377777V483.555556l-39.822222-11.377778c-5.688889-25.6-17.066667-51.2-31.288889-71.111111l19.911111-34.133334-39.822222-42.666666c-5.688889-2.844444-8.533333-5.688889-14.222222-8.533334l-31.288889 17.066667c-22.755556-14.222222-45.511111-25.6-71.111111-31.288889l-11.377778-39.822222h-25.6l-8.533334 31.288889c-25.6 5.688889-51.2 17.066667-71.111111 31.288889l-14.222222-8.533334c-11.377778 5.688889-22.755556 11.377778-31.288889 17.066667l-11.377778-5.688889-28.444444 28.444445 19.911111 34.133333c-14.222222 22.755556-25.6 45.511111-31.288889 71.111111l-39.822222 14.222222v71.111111l39.822222 11.377778c5.688889 25.6 17.066667 51.2 31.288889 71.111111l-19.911111 34.133334 39.822222 39.822222c5.688889 2.844444 8.533333 5.688889 14.222222 8.533333l31.288889-17.066667c22.755556 14.222222 45.511111 25.6 71.111111 31.288889l11.377778 39.822223h25.6l8.533334-31.288889c25.6-5.688889 51.2-17.066667 71.111111-31.288889l14.222222 8.533333c11.377778-5.688889 22.755556-11.377778 31.288889-17.066667l11.377778 5.688889 28.444444-28.444444-19.911111-34.133333z" fill="#31C5FF" p-id="2840"></path><path d="M722.488889 597.333333h-5.688889c-8.533333-2.844444-11.377778-11.377778-8.533333-17.066666 2.844444-5.688889 2.844444-14.222222 5.688889-19.911111 0-5.688889 5.688889-8.533333 11.377777-11.377778l28.444445-8.533334v-48.355555l-28.444445-8.533333c-5.688889-2.844444-8.533333-5.688889-8.533333-11.377778s-2.844444-14.222222-5.688889-19.911111c-5.688889-14.222222-11.377778-25.6-17.066667-39.822223-2.844444-2.844444-2.844444-5.688889-5.688888-8.533333-2.844444-5.688889-2.844444-11.377778 0-17.066667l14.222222-22.755555-34.133334-34.133333-25.6 11.377777c-5.688889 2.844444-11.377778 2.844444-17.066666 0l-17.066667-8.533333c-5.688889-2.844444-8.533333-11.377778-5.688889-19.911111s11.377778-8.533333 19.911111-5.688889c2.844444 2.844444 5.688889 2.844444 11.377778 5.688889l28.444445-14.222222c5.688889-2.844444 11.377778-2.844444 17.066666 2.844444l51.2 51.2c5.688889 5.688889 5.688889 11.377778 2.844445 17.066667l-14.222223 28.444444s0 2.844444 2.844445 2.844445c8.533333 14.222222 14.222222 28.444444 19.911111 45.511111 2.844444 5.688889 2.844444 8.533333 2.844444 14.222222l31.288889 8.533333c5.688889 2.844444 11.377778 8.533333 11.377778 14.222223v71.111111c0 5.688889-2.844444 11.377778-11.377778 14.222222l-31.288889 8.533333c0 5.688889-2.844444 8.533333-2.844444 14.222222-5.688889 0-11.377778 5.688889-19.911111 5.688889z" fill="#3E3A39" p-id="2841"></path><path d="M551.822222 782.222222h-71.111111c-5.688889 0-11.377778-2.844444-14.222222-11.377778l-8.533333-31.288888c-19.911111-5.688889-39.822222-14.222222-62.577778-25.6l-28.444445 14.222222c-5.688889 2.844444-11.377778 2.844444-17.066666-2.844445l-51.2-51.2c-5.688889-5.688889-5.688889-11.377778-2.844445-17.066666l14.222222-28.444445c-11.377778-19.911111-19.911111-39.822222-25.6-59.733333l-31.288888-8.533333c-5.688889-2.844444-11.377778-8.533333-11.377778-14.222223v-71.111111c0-5.688889 2.844444-11.377778 11.377778-14.222222l31.288888-8.533333c5.688889-22.755556 14.222222-42.666667 25.6-59.733334l-14.222222-28.444444c-2.844444-5.688889-2.844444-11.377778 2.844445-17.066667l51.2-51.2c5.688889-5.688889 11.377778-5.688889 17.066666-2.844444l28.444445 14.222222c19.911111-11.377778 39.822222-19.911111 59.733333-25.6l8.533333-31.288889c2.844444-5.688889 8.533333-11.377778 14.222223-11.377778h71.111111c5.688889 0 11.377778 2.844444 14.222222 11.377778l8.533333 31.288889c2.844444 0 5.688889 2.844444 8.533334 2.844444 8.533333 2.844444 11.377778 11.377778 8.533333 17.066667-2.844444 8.533333-11.377778 11.377778-17.066667 8.533333-5.688889-2.844444-8.533333-2.844444-14.222222-2.844444s-8.533333-5.688889-11.377778-11.377778l-8.533333-28.444444h-48.355556l-8.533333 28.444444c-2.844444 5.688889-5.688889 8.533333-11.377778 11.377778-22.755556 5.688889-45.511111 14.222222-68.266666 28.444444-5.688889 2.844444-11.377778 2.844444-17.066667 0l-22.755556-14.222222-34.133333 34.133334 14.222222 25.6c2.844444 5.688889 2.844444 11.377778 0 17.066666-11.377778 19.911111-19.911111 39.822222-25.6 59.733334-2.844444 11.377778-11.377778 17.066667-19.911111 19.911111l-19.911111 5.688889v48.355555l25.6 8.533333c5.688889 2.844444 11.377778 8.533333 14.222222 14.222223 5.688889 22.755556 14.222222 45.511111 28.444445 65.422222 2.844444 5.688889 2.844444 11.377778 0 14.222222l-14.222222 25.6 34.133333 34.133333 25.6-14.222222c5.688889-2.844444 11.377778-2.844444 14.222222 0 22.755556 14.222222 45.511111 25.6 65.422222 28.444445 5.688889 0 8.533333 5.688889 11.377778 11.377777l8.533333 28.444445H540.444444l8.533334-28.444445c2.844444-5.688889 5.688889-8.533333 11.377778-11.377777 22.755556-5.688889 45.511111-14.222222 68.266666-28.444445 5.688889-2.844444 11.377778-2.844444 14.222222 0l25.6 14.222222 34.133334-34.133333-14.222222-25.6c-2.844444-5.688889-2.844444-11.377778 0-14.222222l8.533333-17.066667c2.844444-5.688889 11.377778-8.533333 19.911111-5.688889 5.688889 2.844444 8.533333 11.377778 5.688889 19.911111-2.844444 2.844444-2.844444 5.688889-5.688889 11.377778l14.222222 28.444445c2.844444 5.688889 2.844444 11.377778-2.844444 17.066666l-51.2 51.2c-5.688889 5.688889-11.377778 5.688889-17.066667 2.844445l-28.444444-14.222222c-19.911111 11.377778-39.822222 19.911111-59.733334 25.6l-8.533333 31.288888c0 5.688889-5.688889 11.377778-11.377778 11.377778z" fill="#3E3A39" p-id="2842"></path><path d="M588.8 472.177778c8.533333 11.377778 11.377778 28.444444 11.377778 42.666666 0 45.511111-36.977778 85.333333-85.333334 85.333334s-85.333333-36.977778-85.333333-85.333334c0-45.511111 36.977778-85.333333 85.333333-85.333333 8.533333 0 17.066667 0 25.6 2.844445 8.533333 2.844444 17.066667 8.533333 25.6 14.222222 8.533333 5.688889 17.066667 14.222222 22.755556 25.6" fill="#FFFFFF" p-id="2843"></path><path d="M514.844444 614.4c-45.511111 0-85.333333-31.288889-96.711111-76.8-11.377778-54.044444 19.911111-105.244444 73.955556-119.466667 8.533333-2.844444 19.911111-2.844444 28.444444-2.844444 11.377778 0 22.755556 2.844444 31.288889 8.533333 11.377778 5.688889 22.755556 11.377778 31.288889 22.755556 5.688889 5.688889 5.688889 14.222222 0 19.911111-5.688889 5.688889-14.222222 5.688889-19.911111 0-5.688889-5.688889-14.222222-11.377778-22.755556-17.066667-8.533333-2.844444-14.222222-5.688889-22.755555-5.688889-5.688889 0-14.222222 0-19.911111 2.844445-17.066667 2.844444-34.133333 14.222222-42.666667 31.288889-11.377778 17.066667-14.222222 34.133333-8.533333 54.044444 8.533333 36.977778 45.511111 62.577778 85.333333 54.044445 31.288889-5.688889 51.2-31.288889 54.044445-62.577778 0-8.533333 8.533333-14.222222 14.222222-14.222222 8.533333 0 14.222222 8.533333 14.222222 14.222222-2.844444 42.666667-34.133333 76.8-76.8 88.177778-8.533333 0-14.222222 2.844444-22.755556 2.844444z" fill="#3E3A39" p-id="2844"></path><path d="M398.222222 412.444444c-2.844444 0-5.688889 0-8.533333-2.844444-5.688889-5.688889-8.533333-14.222222-2.844445-19.911111 14.222222-19.911111 36.977778-34.133333 62.577778-39.822222 8.533333-2.844444 14.222222 2.844444 17.066667 11.377777 2.844444 8.533333-2.844444 14.222222-11.377778 17.066667-17.066667 2.844444-34.133333 14.222222-45.511111 28.444445-2.844444 2.844444-5.688889 5.688889-11.377778 5.688888z" fill="#FFFFFF" p-id="2845"></path></svg>