<?xml version="1.0" standalone="no"?><!DOCTYPE svg PUBLIC "-//W3C//DTD SVG 1.1//EN" "http://www.w3.org/Graphics/SVG/1.1/DTD/svg11.dtd"><svg t="1595163938348" class="icon" viewBox="0 0 1024 1024" version="1.1" xmlns="http://www.w3.org/2000/svg" p-id="2666" xmlns:xlink="http://www.w3.org/1999/xlink" width="200" height="200"><defs><style type="text/css"></style></defs><path d="M720.4 807.9L561 648.6c-0.5-0.5-0.5-1.3 0-1.8l47.6-47.6c0.5-0.5 1.3-0.5 1.8 0l159.3 159.3c0.5 0.5 0.5 1.3 0 1.8l-47.6 47.6c-0.4 0.5-1.2 0.5-1.7 0z" fill="#DB53D8" p-id="2667"></path><path d="M634.3 622.9c-13.7-13.7-35.8-13.7-49.5 0-13.7 13.7-13.7 35.8 0 49.5l41.2 41.2c17.2-15.9 32.1-34.2 44.5-54.4l-36.2-36.3z" fill="#AD31AD" p-id="2668"></path><path d="M721.3 807.9c-13 0-25.1-5.1-34.3-14.2L575.3 682c-18.9-18.9-18.9-49.7 0-68.6 18.9-18.9 49.7-18.9 68.6 0L755.6 725c18.9 18.9 18.9 49.7 0 68.6-9.2 9.2-21.4 14.3-34.3 14.3zM609.6 626.2c-5.5 0-11 2.1-15.2 6.3-8.4 8.4-8.4 22 0 30.3l111.7 111.7c8.1 8.1 22.2 8.1 30.3 0 8.4-8.4 8.4-22 0-30.3L624.7 632.5c-4.1-4.2-9.6-6.3-15.1-6.3zM558.9 371.7c-1.4 0-2.9-0.2-4.3-0.7-78.1-26.3-118.9-132.4-120.6-137-2.6-7 0.9-14.8 7.9-17.4 7-2.6 14.8 0.9 17.5 7.9 0.4 1 38 98.7 103.9 120.8 7.1 2.4 10.9 10.1 8.5 17.1-1.9 5.7-7.2 9.3-12.9 9.3z" fill="#3E3A39" p-id="2669"></path><path d="M556.3 356.5c-78.2-39.9-164.8-25-224.1 25.2-22.5 19-14 55.8 14.2 64.3 12 3.6 25 1.1 34.6-7 37.1-31.3 91-40.7 139.9-16.1 45.2 22.8 73.2 72.4 68.7 122.9-7.4 83.7-88 134.9-163.7 112-42.8-12.9-73.5-46.4-85-86.4-3.5-12-12.9-21.3-24.9-24.9-28.8-8.7-55.6 18.2-47.1 47 18.7 63 67.6 115.8 135.2 136.2 119.7 36.2 247-43.8 260.3-175.2 8.3-81-35.5-161-108.1-198z" fill="#FF3E7E" p-id="2670"></path><path d="M556.3 356.5c-78.2-39.9-164.8-25-224.1 25.2-17.5 14.8-16 40.3-1.2 54.9-12-13.5-12.5-35.6 2.9-48.6 54.1-45.8 133.2-59.4 204.5-23 66.2 33.8 106.2 106.8 98.7 180.8-12.2 119.9-128.3 193-237.6 159.9-61.7-18.7-106.4-66.8-123.4-124.3-2.7-9.2-1.3-18 2.5-25.5-9.3 9.2-14 23.2-9.7 37.7 18.7 63 67.6 115.8 135.2 136.2 119.7 36.2 247-43.8 260.3-175.2 8.3-81.1-35.5-161.1-108.1-198.1z" fill="#FF1A72" p-id="2671"></path><path d="M462.9 752c-21 0-42.1-3.1-62.7-9.3-69.6-21.1-123.6-75.4-144.3-145.3-5.4-18.2-0.4-37.7 13.1-51.1 13.6-13.5 32.6-18.2 50.9-12.7 16.5 5 29.2 17.8 33.9 34.1 10.8 37.2 39.1 66 76 77.2 32.9 10 68.1 4.6 96.6-14.7 28.5-19.3 46.6-50.4 49.7-85.5 4-45-20.7-89.1-61.3-109.6-41.8-21.1-89.7-15.5-125.1 14.3-13.1 11-30.8 14.5-47.3 9.6-18.1-5.5-31.7-20.5-35.6-39.1-3.8-18.4 2.4-36.5 16.6-48.5 66.7-56.4 160.5-67 239-26.9 77.9 39.7 124.3 124.7 115.5 211.5-6.7 65.6-41.4 123.8-95.3 159.8-36 23.8-77.6 36.2-119.7 36.2zM305 558.4c-6.2 0-12.2 2.5-16.9 7.1-6.5 6.4-8.8 15.5-6.2 24.2C300 650.8 347.2 698.3 408 716.8c54.2 16.4 112.3 7.8 159.5-23.7 47.2-31.4 77.6-82.4 83.4-140 7.7-75.8-32.8-149.9-100.8-184.6-68.8-35.1-150.9-25.9-209.2 23.5-9.3 7.9-8.4 18.3-7.5 22.3 1.9 9 8.2 16 16.9 18.7 7.7 2.4 15.9 0.7 22-4.4 43.2-36.4 104-43.4 154.7-17.8 50.4 25.4 81 80.2 76.1 136.1-3.8 43.2-26.2 81.7-61.5 105.6-35.3 23.8-78.9 30.5-119.6 18.1-45.6-13.8-80.8-49.5-94.1-95.6-2.2-7.5-8.1-13.4-15.8-15.7-2.4-0.6-4.8-0.9-7.1-0.9z" fill="#3E3A39" p-id="2672"></path><path d="M415.6 524.9m-14.5 0a14.5 14.5 0 1 0 29 0 14.5 14.5 0 1 0-29 0Z" fill="#3E3A39" p-id="2673"></path><path d="M517.2 524.9m-14.5 0a14.5 14.5 0 1 0 29 0 14.5 14.5 0 1 0-29 0Z" fill="#3E3A39" p-id="2674"></path><path d="M466.4 544.6c8.4 0 15.4 3.7 19.7 9 3-3.1 4.8-6.6 4.8-9.2 0-6.6-10.9-6-24.4-6-13.5 0-24.4-0.6-24.4 6 0 2.7 1.8 6.1 4.8 9.2 4.1-5.3 11.1-9 19.5-9z" fill="#910782" p-id="2675"></path><path d="M486 553.5c-4.3-5.3-11.3-9-19.7-9-8.4 0-15.4 3.7-19.7 9 4.4 4.7 11.6 8.8 19.7 8.8 8.2 0.1 15.3-4 19.7-8.8z" fill="#F42F67" p-id="2676"></path><path d="M615.3 415.9c-3.4 0-6.9-1.3-9.5-3.9-70.8-70.1-50.4-147.4-49.5-150.6 2-7.2 9.4-11.4 16.7-9.4 7.2 2 11.4 9.4 9.4 16.6-0.8 2.9-16.6 65.8 42.5 124.2 5.3 5.3 5.4 13.8 0.1 19.1-2.7 2.7-6.2 4-9.7 4z" fill="#3E3A39" p-id="2677"></path><path d="M513.4 706c-6.1 0-11.6-4.1-13.1-10.2-1.8-7.2 2.6-14.6 9.8-16.4 17.9-4.5 25.8-9 42-21.2 6-4.5 14.5-3.3 19 2.7s3.3 14.5-2.7 19c-18.1 13.6-29.2 20.2-51.7 25.9-1.1 0.1-2.2 0.2-3.3 0.2z" fill="#FFFFFF" p-id="2678"></path><path d="M694.3 345.4c-13.3 0-24.2-10.9-24.2-24.2 0-13.3 10.9-24.2 24.2-24.2s24.2 10.9 24.2 24.2c0 13.4-10.9 24.2-24.2 24.2z m0-34.9c-5.9 0-10.7 4.8-10.7 10.7 0 5.9 4.8 10.7 10.7 10.7s10.7-4.8 10.7-10.7c-0.1-5.9-4.9-10.7-10.7-10.7z" fill="#1EAA39" p-id="2679"></path><path d="M811.4 490.4c-1.7 0-3.5-0.7-4.8-2-2.6-2.6-2.6-6.9 0-9.6l26.5-26.5c2.6-2.6 6.9-2.6 9.6 0 2.6 2.6 2.6 6.9 0 9.6l-26.5 26.5c-1.3 1.3-3 2-4.8 2z" fill="#F7B52C" p-id="2680"></path><path d="M837.9 490.4c-1.7 0-3.5-0.7-4.8-2L806.7 462c-2.6-2.6-2.6-6.9 0-9.6 2.6-2.6 6.9-2.6 9.6 0l26.4 26.4c2.6 2.6 2.6 6.9 0 9.6-1.4 1.3-3.1 2-4.8 2z" fill="#F7B52C" p-id="2681"></path><path d="M182 498m-10.5 0a10.5 10.5 0 1 0 21 0 10.5 10.5 0 1 0-21 0Z" fill="#FAED00" p-id="2682"></path><path d="M272.3 735.2c-3.7 0-6.8-3-6.8-6.8V691c0-3.7 3-6.8 6.8-6.8s6.8 3 6.8 6.8v37.4c0 3.8-3.1 6.8-6.8 6.8z" fill="#E95513" p-id="2683"></path><path d="M291 716.5h-37.3c-3.7 0-6.8-3-6.8-6.8 0-3.7 3-6.8 6.8-6.8H291c3.7 0 6.8 3 6.8 6.8-0.1 3.8-3.1 6.8-6.8 6.8z" fill="#E95513" p-id="2684"></path><path d="M272.3 309.7c-13.3 0-24.2-10.9-24.2-24.2 0-13.3 10.9-24.2 24.2-24.2 13.4 0 24.2 10.9 24.2 24.2 0 13.4-10.9 24.2-24.2 24.2z m0-34.8c-5.9 0-10.7 4.8-10.7 10.7s4.8 10.7 10.7 10.7c5.9 0 10.7-4.8 10.7-10.7s-4.8-10.7-10.7-10.7z" fill="#2CA6E0" p-id="2685"></path><path d="M785 608.4m-10.5 0a10.5 10.5 0 1 0 21 0 10.5 10.5 0 1 0-21 0Z" fill="#0DAC67" p-id="2686"></path><path d="M526.5 820m-10.5 0a10.5 10.5 0 1 0 21 0 10.5 10.5 0 1 0-21 0Z" fill="#2CA6E0" p-id="2687"></path></svg>